<?xml version="1.0" encoding="UTF-8"?>
<!DOCTYPE svg PUBLIC "-//W3C//DTD SVG 1.1//EN" "http://www.w3.org/Graphics/SVG/1.1/DTD/svg11.dtd">
<svg xmlns="http://www.w3.org/2000/svg" version="1.1" width="2105px" height="2105px" style="shape-rendering:geometricPrecision; text-rendering:geometricPrecision; image-rendering:optimizeQuality; fill-rule:evenodd; clip-rule:evenodd" xmlns:xlink="http://www.w3.org/1999/xlink">
<g><path style="opacity:1" fill="#435369" d="M 324.5,-0.5 C 808.833,-0.5 1293.17,-0.5 1777.5,-0.5C 1876.49,8.57758 1958.33,50.5776 2023,125.5C 2070.38,183.603 2097.05,250.269 2103,325.5C 2103.17,801.667 2103.67,1277.67 2104.5,1753.5C 2104.5,1753.83 2104.5,1754.17 2104.5,1754.5C 2099.6,1884.85 2042.6,1985.02 1933.5,2055C 1884.93,2083.69 1832.59,2100.19 1776.5,2104.5C 1292.83,2104.5 809.167,2104.5 325.5,2104.5C 200.377,2092.06 105.877,2032.06 42,1924.5C 19.14,1882.82 4.97334,1838.49 -0.5,1791.5C -0.5,1298.5 -0.5,805.5 -0.5,312.5C 14.3719,201.195 68.3719,114.695 161.5,53C 211.527,21.8241 265.86,3.99073 324.5,-0.5 Z"/></g>
<g><path style="opacity:1" fill="#619bd2" d="M 1793.5,819.5 C 1792.29,820.686 1790.96,820.686 1789.5,819.5C 1726.8,778.505 1657.8,757.005 1582.5,755C 1540.42,751.842 1499.75,757.842 1460.5,773C 1442.13,780.709 1426.63,792.209 1414,807.5C 1405.73,818.477 1400.9,830.811 1399.5,844.5C 1398.34,851.655 1398.18,858.988 1399,866.5C 1400.53,873.268 1402.36,879.935 1404.5,886.5C 1408.24,895.666 1413.24,903.999 1419.5,911.5C 1425.63,919.461 1432.63,926.627 1440.5,933C 1470.88,953.533 1502.88,971.533 1536.5,987C 1575.19,1003.85 1613.53,1021.51 1651.5,1040C 1683.2,1056.84 1713.2,1076.17 1741.5,1098C 1766.07,1118.05 1786.4,1141.55 1802.5,1168.5C 1816.68,1194.38 1826.68,1221.71 1832.5,1250.5C 1838.83,1292.76 1837.49,1334.76 1828.5,1376.5C 1823.4,1398.46 1815.74,1419.46 1805.5,1439.5C 1777.54,1487.62 1738.21,1523.45 1687.5,1547C 1625.12,1574.48 1559.79,1588.81 1491.5,1590C 1412.91,1594.17 1335.58,1586.51 1259.5,1567C 1235.16,1559.83 1211.49,1551 1188.5,1540.5C 1187.49,1539.33 1186.15,1538.66 1184.5,1538.5C 1183.31,1537.73 1182.31,1536.73 1181.5,1535.5C 1181.5,1465.83 1181.5,1396.17 1181.5,1326.5C 1182.55,1326.35 1183.55,1326.52 1184.5,1327C 1286.23,1410.35 1401.9,1439.35 1531.5,1414C 1557.39,1407.4 1579.06,1394.24 1596.5,1374.5C 1602.08,1368.35 1606.42,1361.35 1609.5,1353.5C 1613.42,1343.92 1615.42,1333.92 1615.5,1323.5C 1615.37,1297.94 1606.87,1275.6 1590,1256.5C 1582.43,1248.26 1574.27,1240.76 1565.5,1234C 1538.55,1216.02 1510.22,1200.35 1480.5,1187C 1451.3,1173.94 1421.96,1161.27 1392.5,1149C 1348.95,1129.9 1308.95,1105.23 1272.5,1075C 1230.71,1039.37 1202.04,995.205 1186.5,942.5C 1176.61,901.522 1174.94,860.189 1181.5,818.5C 1186.84,790.826 1196.17,764.493 1209.5,739.5C 1236.22,696.62 1271.88,663.12 1316.5,639C 1359.72,616.447 1405.39,601.447 1453.5,594C 1538.83,582.513 1623.83,584.513 1708.5,600C 1737.44,605.651 1765.61,613.818 1793,624.5C 1793.5,689.499 1793.67,754.499 1793.5,819.5 Z"/></g>
<g><path style="opacity:1" fill="#fefefe" d="M 1789.5,626.5 C 1789.83,689.336 1789.5,752.002 1788.5,814.5C 1730.38,777.482 1666.72,756.648 1597.5,752C 1576.17,751.333 1554.83,751.333 1533.5,752C 1493.57,753.974 1457.57,766.64 1425.5,790C 1397.78,815.357 1388.95,846.19 1399,882.5C 1407.14,904.643 1420.64,922.81 1439.5,937C 1457.53,949.351 1476.2,960.685 1495.5,971C 1539.18,992.323 1583.18,1012.66 1627.5,1032C 1665.74,1050.45 1701.74,1072.45 1735.5,1098C 1799.55,1149.61 1831.89,1216.78 1832.5,1299.5C 1832.99,1428.47 1772.66,1514.64 1651.5,1558C 1586.75,1579.41 1520.25,1588.91 1452,1586.5C 1371.32,1588.47 1293.15,1575.97 1217.5,1549C 1206.89,1544.57 1196.39,1539.73 1186,1534.5C 1185.33,1467.5 1185.33,1400.5 1186,1333.5C 1284.95,1412.28 1397.12,1441.12 1522.5,1420C 1551.44,1414.28 1576.27,1401.12 1597,1380.5C 1618.12,1355.6 1624.45,1327.27 1616,1295.5C 1606.82,1270.31 1591.66,1249.48 1570.5,1233C 1547.98,1217.56 1524.31,1203.9 1499.5,1192C 1464.31,1175.16 1428.64,1159.5 1392.5,1145C 1342.99,1123.18 1298.49,1094.01 1259,1057.5C 1201.56,999.559 1175.9,929.559 1182,847.5C 1187.77,771.115 1221.27,710.281 1282.5,665C 1333.48,629.692 1389.82,607.359 1451.5,598C 1504.27,590.432 1557.27,588.432 1610.5,592C 1672.03,594.64 1731.7,606.14 1789.5,626.5 Z"/></g>
<g><path style="opacity:1" fill="#5f9bd2" d="M 452.5,617.5 C 521.013,843.21 589.846,1068.88 659,1294.5C 667.245,1322.63 672.911,1351.3 676,1380.5C 680.036,1350.99 686.369,1321.99 695,1293.5C 764.154,1068.87 832.987,844.206 901.5,619.5C 903.543,614.366 905.21,609.033 906.5,603.5C 979.5,603.5 1052.5,603.5 1125.5,603.5C 1124.8,607.237 1123.8,610.904 1122.5,614.5C 1121.43,616.701 1120.77,619.035 1120.5,621.5C 1119.69,623.028 1119.02,624.694 1118.5,626.5C 1009.15,941.902 899.479,1257.24 789.5,1572.5C 710.836,1573.5 632.169,1573.83 553.5,1573.5C 445.498,1258.16 337.498,942.83 229.5,627.5C 229.204,625.597 228.537,623.93 227.5,622.5C 227.02,619.557 226.02,616.89 224.5,614.5C 223.699,610.765 222.699,607.099 221.5,603.5C 296.834,603.333 372.167,603.5 447.5,604C 448.893,608.687 450.559,613.187 452.5,617.5 Z"/></g>
<g><path style="opacity:1" fill="#dfebf6" d="M 909.5,607.5 C 980.001,606.168 1050.67,606.168 1121.5,607.5C 1121.38,608.107 1121.04,608.44 1120.5,608.5C 1050.34,607.501 980.002,607.167 909.5,607.5 Z"/></g>
<g><path style="opacity:1" fill="#fefefe" d="M 909.5,607.5 C 980.002,607.167 1050.34,607.501 1120.5,608.5C 1009.44,928.847 898.273,1249.18 787,1569.5C 748.57,1570.17 710.07,1570.5 671.5,1570.5C 632.93,1570.5 594.43,1570.17 556,1569.5C 446.146,1248.47 336.312,927.469 226.5,606.5C 299.404,606.169 372.238,606.502 445,607.5C 514.672,835.182 584.339,1062.85 654,1290.5C 663.18,1321.58 669.347,1353.25 672.5,1385.5C 675.119,1385.77 677.619,1385.44 680,1384.5C 683.108,1355.63 688.774,1327.3 697,1299.5C 768.149,1068.9 838.983,838.229 909.5,607.5 Z"/></g>
<g><path style="opacity:1" fill="#404f64" d="M 224.5,614.5 C 226.02,616.89 227.02,619.557 227.5,622.5C 224.01,623.397 221.844,625.73 221,629.5C 220.249,634.572 220.582,639.572 222,644.5C 329.275,958.327 436.942,1271.99 545,1585.5C 550.007,1594.76 557.84,1599.59 568.5,1600C 637.167,1600.67 705.833,1600.67 774.5,1600C 787.2,1599.57 795.7,1593.4 800,1581.5C 908.882,1268.52 1017.55,955.52 1126,642.5C 1126.67,637.833 1126.67,633.167 1126,628.5C 1125.06,625.405 1123.23,623.071 1120.5,621.5C 1120.77,619.035 1121.43,616.701 1122.5,614.5C 1127.82,616.324 1131.32,619.991 1133,625.5C 1134.66,632.215 1134.33,638.882 1132,645.5C 1023.39,959.317 914.395,1272.98 805,1586.5C 800.463,1598.18 791.963,1604.68 779.5,1606C 743.667,1606.17 707.833,1606.33 672,1606.5C 634.135,1606.65 596.301,1606.15 558.5,1605C 547.386,1601.89 540.219,1594.72 537,1583.5C 428.748,1269.08 321.082,954.412 214,639.5C 211.207,628.349 214.707,620.016 224.5,614.5 Z"/></g>
<g><path style="opacity:1" fill="#405065" d="M 452.5,617.5 C 455.168,619.336 457.334,621.669 459,624.5C 462.453,630.859 465.119,637.526 467,644.5C 535.258,868.61 603.925,1092.61 673,1316.5C 674.353,1317.69 675.52,1319.02 676.5,1320.5C 677.814,1319.69 678.981,1318.69 680,1317.5C 750.606,1090.68 820.606,863.682 890,636.5C 892.139,630.219 895.305,624.552 899.5,619.5C 900.429,618.45 901.095,618.45 901.5,619.5C 832.987,844.206 764.154,1068.87 695,1293.5C 686.369,1321.99 680.036,1350.99 676,1380.5C 672.911,1351.3 667.245,1322.63 659,1294.5C 589.846,1068.88 521.013,843.21 452.5,617.5 Z"/></g>
<g><path style="opacity:1" fill="#3d4b5f" d="M 1120.5,621.5 C 1123.23,623.071 1125.06,625.405 1126,628.5C 1126.67,633.167 1126.67,637.833 1126,642.5C 1017.55,955.52 908.882,1268.52 800,1581.5C 795.7,1593.4 787.2,1599.57 774.5,1600C 705.833,1600.67 637.167,1600.67 568.5,1600C 557.84,1599.59 550.007,1594.76 545,1585.5C 436.942,1271.99 329.275,958.327 222,644.5C 220.582,639.572 220.249,634.572 221,629.5C 221.844,625.73 224.01,623.397 227.5,622.5C 228.537,623.93 229.204,625.597 229.5,627.5C 226.873,626.924 225.373,628.258 225,631.5C 224.274,636.239 224.607,640.905 226,645.5C 332.337,955.844 438.67,1266.18 545,1576.5C 548.035,1587.13 554.868,1593.63 565.5,1596C 636.167,1596.67 706.833,1596.67 777.5,1596C 787.351,1594.48 793.851,1588.98 797,1579.5C 905.531,1267.58 1013.86,955.575 1122,643.5C 1123.83,637.936 1123.5,632.603 1121,627.5C 1120.33,626.748 1119.5,626.414 1118.5,626.5C 1119.02,624.694 1119.69,623.028 1120.5,621.5 Z"/></g>
<g><path style="opacity:1" fill="#b6d2eb" d="M 1789.5,626.5 C 1790.83,689.335 1790.83,752.335 1789.5,815.5C 1788.89,815.376 1788.56,815.043 1788.5,814.5C 1789.5,752.002 1789.83,689.336 1789.5,626.5 Z"/></g>
<g><path style="opacity:1" fill="#384659" d="M 229.5,627.5 C 337.498,942.83 445.498,1258.16 553.5,1573.5C 632.169,1573.83 710.836,1573.5 789.5,1572.5C 899.479,1257.24 1009.15,941.902 1118.5,626.5C 1119.5,626.414 1120.33,626.748 1121,627.5C 1123.5,632.603 1123.83,637.936 1122,643.5C 1013.86,955.575 905.531,1267.58 797,1579.5C 793.851,1588.98 787.351,1594.48 777.5,1596C 706.833,1596.67 636.167,1596.67 565.5,1596C 554.868,1593.63 548.035,1587.13 545,1576.5C 438.67,1266.18 332.337,955.844 226,645.5C 224.607,640.905 224.274,636.239 225,631.5C 225.373,628.258 226.873,626.924 229.5,627.5 Z"/></g>
<g><path style="opacity:1" fill="#404f64" d="M 1419.5,911.5 C 1413.24,903.999 1408.24,895.666 1404.5,886.5C 1402.94,850.451 1417.94,823.617 1449.5,806C 1478.03,791.285 1508.36,783.285 1540.5,782C 1625.02,776.5 1703.69,795.167 1776.5,838C 1789.1,842.786 1796.6,838.62 1799,825.5C 1799.67,768.833 1799.67,712.167 1799,655.5C 1798.55,651.281 1797.05,647.614 1794.5,644.5C 1794.33,641.15 1794.5,637.817 1795,634.5C 1802.09,640.396 1805.76,648.063 1806,657.5C 1806.67,713.5 1806.67,769.5 1806,825.5C 1805.19,841.317 1797.03,848.483 1781.5,847C 1776.6,845.551 1771.93,843.551 1767.5,841C 1705.44,804.857 1638.27,787.023 1566,787.5C 1529.7,786.521 1494.87,793.021 1461.5,807C 1415.56,829.36 1401.56,864.194 1419.5,911.5 Z"/></g>
<g><path style="opacity:1" fill="#3b495c" d="M 1794.5,644.5 C 1797.05,647.614 1798.55,651.281 1799,655.5C 1799.67,712.167 1799.67,768.833 1799,825.5C 1796.6,838.62 1789.1,842.786 1776.5,838C 1703.69,795.167 1625.02,776.5 1540.5,782C 1508.36,783.285 1478.03,791.285 1449.5,806C 1417.94,823.617 1402.94,850.451 1404.5,886.5C 1402.36,879.935 1400.53,873.268 1399,866.5C 1398.18,858.988 1398.34,851.655 1399.5,844.5C 1399.33,847.85 1399.5,851.183 1400,854.5C 1406.08,834.093 1417.91,817.926 1435.5,806C 1459.58,790.417 1485.91,780.75 1514.5,777C 1584.46,768.412 1652.46,776.412 1718.5,801C 1739.78,810.309 1760.78,820.142 1781.5,830.5C 1788.24,829.47 1790.9,825.804 1789.5,819.5C 1790.96,820.686 1792.29,820.686 1793.5,819.5C 1794.5,761.336 1794.83,703.002 1794.5,644.5 Z"/></g>
<g><path style="opacity:1" fill="#404f64" d="M 1209.5,739.5 C 1196.17,764.493 1186.84,790.826 1181.5,818.5C 1152.72,943.217 1190.72,1044.05 1295.5,1121C 1323.62,1140.4 1353.29,1157.4 1384.5,1172C 1427.88,1189.69 1470.55,1209.02 1512.5,1230C 1531.29,1239.81 1549.29,1250.81 1566.5,1263C 1590.26,1281.1 1604.43,1304.93 1609,1334.5C 1609.29,1341.04 1609.46,1347.37 1609.5,1353.5C 1606.42,1361.35 1602.08,1368.35 1596.5,1374.5C 1595.96,1374.44 1595.62,1374.11 1595.5,1373.5C 1606.24,1347.59 1604.41,1322.59 1590,1298.5C 1577.15,1279.33 1560.65,1264.17 1540.5,1253C 1513.2,1237.39 1485.2,1223.05 1456.5,1210C 1428.05,1197.94 1399.72,1185.61 1371.5,1173C 1325.15,1151.34 1283.49,1123.01 1246.5,1088C 1181.62,1021.37 1155.46,941.535 1168,848.5C 1173.23,809.065 1186.57,772.732 1208,739.5C 1208.69,738.262 1209.19,738.262 1209.5,739.5 Z"/></g>
<g><path style="opacity:1" fill="#333f50" d="M 1789.5,819.5 C 1790.9,825.804 1788.24,829.47 1781.5,830.5C 1760.78,820.142 1739.78,810.309 1718.5,801C 1652.46,776.412 1584.46,768.412 1514.5,777C 1485.91,780.75 1459.58,790.417 1435.5,806C 1417.91,817.926 1406.08,834.093 1400,854.5C 1399.5,851.183 1399.33,847.85 1399.5,844.5C 1400.9,830.811 1405.73,818.477 1414,807.5C 1426.63,792.209 1442.13,780.709 1460.5,773C 1499.75,757.842 1540.42,751.842 1582.5,755C 1657.8,757.005 1726.8,778.505 1789.5,819.5 Z"/></g>
<g><path style="opacity:1" fill="#3b495c" d="M 1181.5,818.5 C 1174.94,860.189 1176.61,901.522 1186.5,942.5C 1185.31,942.97 1184.64,943.97 1184.5,945.5C 1192.32,984.795 1208.49,1020.13 1233,1051.5C 1266.28,1091.12 1305.78,1122.95 1351.5,1147C 1362.83,1152.67 1374.17,1158.33 1385.5,1164C 1435.61,1184.22 1484.61,1206.89 1532.5,1232C 1548.65,1241.16 1563.99,1251.49 1578.5,1263C 1596.86,1279.56 1609.19,1299.73 1615.5,1323.5C 1615.42,1333.92 1613.42,1343.92 1609.5,1353.5C 1609.46,1347.37 1609.29,1341.04 1609,1334.5C 1604.43,1304.93 1590.26,1281.1 1566.5,1263C 1549.29,1250.81 1531.29,1239.81 1512.5,1230C 1470.55,1209.02 1427.88,1189.69 1384.5,1172C 1353.29,1157.4 1323.62,1140.4 1295.5,1121C 1190.72,1044.05 1152.72,943.217 1181.5,818.5 Z"/></g>
<g><path style="opacity:1" fill="#333f50" d="M 1186.5,942.5 C 1202.04,995.205 1230.71,1039.37 1272.5,1075C 1308.95,1105.23 1348.95,1129.9 1392.5,1149C 1421.96,1161.27 1451.3,1173.94 1480.5,1187C 1510.22,1200.35 1538.55,1216.02 1565.5,1234C 1574.27,1240.76 1582.43,1248.26 1590,1256.5C 1606.87,1275.6 1615.37,1297.94 1615.5,1323.5C 1609.19,1299.73 1596.86,1279.56 1578.5,1263C 1563.99,1251.49 1548.65,1241.16 1532.5,1232C 1484.61,1206.89 1435.61,1184.22 1385.5,1164C 1374.17,1158.33 1362.83,1152.67 1351.5,1147C 1305.78,1122.95 1266.28,1091.12 1233,1051.5C 1208.49,1020.13 1192.32,984.795 1184.5,945.5C 1184.64,943.97 1185.31,942.97 1186.5,942.5 Z"/></g>
<g><path style="opacity:1" fill="#404f64" d="M 1180.5,1353.5 C 1177.96,1356.25 1176.46,1359.58 1176,1363.5C 1175.33,1424.83 1175.33,1486.17 1176,1547.5C 1177.77,1556.93 1182.94,1563.76 1191.5,1568C 1244.38,1591.72 1299.72,1606.39 1357.5,1612C 1437.25,1621.01 1516.58,1618.34 1595.5,1604C 1653.29,1592.98 1705.29,1569.65 1751.5,1534C 1806.45,1486.6 1836.28,1426.43 1841,1353.5C 1843.41,1326.38 1842.41,1299.38 1838,1272.5C 1836.76,1264.31 1834.93,1256.98 1832.5,1250.5C 1826.68,1221.71 1816.68,1194.38 1802.5,1168.5C 1802.81,1167.26 1803.31,1167.26 1804,1168.5C 1834.6,1215.7 1849.43,1267.53 1848.5,1324C 1848.06,1451.63 1789.06,1539.63 1671.5,1588C 1613.5,1609.56 1553.5,1621.22 1491.5,1623C 1424.24,1625.77 1357.57,1620.77 1291.5,1608C 1257.45,1600.47 1224.45,1589.8 1192.5,1576C 1177.64,1569.8 1169.81,1558.63 1169,1542.5C 1168.33,1483.5 1168.33,1424.5 1169,1365.5C 1169.24,1359.1 1170.91,1353.1 1174,1347.5C 1175.41,1345.59 1177.25,1344.25 1179.5,1343.5C 1180.49,1346.77 1180.82,1350.1 1180.5,1353.5 Z"/></g>
<g><path style="opacity:1" fill="#3b495c" d="M 1180.5,1353.5 C 1180.17,1414.34 1180.5,1475 1181.5,1535.5C 1182.31,1536.73 1183.31,1537.73 1184.5,1538.5C 1182.99,1549.96 1187.66,1558.13 1198.5,1563C 1246.15,1583.66 1295.82,1597 1347.5,1603C 1421.6,1612.22 1495.6,1611.56 1569.5,1601C 1618.23,1593.65 1664.23,1578.31 1707.5,1555C 1775.71,1515.8 1816.71,1457.3 1830.5,1379.5C 1830.06,1378.26 1829.39,1377.26 1828.5,1376.5C 1837.49,1334.76 1838.83,1292.76 1832.5,1250.5C 1834.93,1256.98 1836.76,1264.31 1838,1272.5C 1842.41,1299.38 1843.41,1326.38 1841,1353.5C 1836.28,1426.43 1806.45,1486.6 1751.5,1534C 1705.29,1569.65 1653.29,1592.98 1595.5,1604C 1516.58,1618.34 1437.25,1621.01 1357.5,1612C 1299.72,1606.39 1244.38,1591.72 1191.5,1568C 1182.94,1563.76 1177.77,1556.93 1176,1547.5C 1175.33,1486.17 1175.33,1424.83 1176,1363.5C 1176.46,1359.58 1177.96,1356.25 1180.5,1353.5 Z"/></g>
<g><path style="opacity:1" fill="#364354" d="M 1828.5,1376.5 C 1829.39,1377.26 1830.06,1378.26 1830.5,1379.5C 1816.71,1457.3 1775.71,1515.8 1707.5,1555C 1664.23,1578.31 1618.23,1593.65 1569.5,1601C 1495.6,1611.56 1421.6,1612.22 1347.5,1603C 1295.82,1597 1246.15,1583.66 1198.5,1563C 1187.66,1558.13 1182.99,1549.96 1184.5,1538.5C 1186.15,1538.66 1187.49,1539.33 1188.5,1540.5C 1189.54,1548.37 1193.54,1554.21 1200.5,1558C 1248.15,1578.66 1297.81,1592 1349.5,1598C 1424.32,1607.33 1498.98,1606.33 1573.5,1595C 1629.3,1586.52 1680.63,1566.85 1727.5,1536C 1762.02,1511.82 1788.19,1480.65 1806,1442.5C 1806.74,1441.25 1806.57,1440.25 1805.5,1439.5C 1815.74,1419.46 1823.4,1398.46 1828.5,1376.5 Z"/></g>
<g><path style="opacity:1" fill="#313e4e" d="M 1805.5,1439.5 C 1806.57,1440.25 1806.74,1441.25 1806,1442.5C 1788.19,1480.65 1762.02,1511.82 1727.5,1536C 1680.63,1566.85 1629.3,1586.52 1573.5,1595C 1498.98,1606.33 1424.32,1607.33 1349.5,1598C 1297.81,1592 1248.15,1578.66 1200.5,1558C 1193.54,1554.21 1189.54,1548.37 1188.5,1540.5C 1211.49,1551 1235.16,1559.83 1259.5,1567C 1335.58,1586.51 1412.91,1594.17 1491.5,1590C 1559.79,1588.81 1625.12,1574.48 1687.5,1547C 1738.21,1523.45 1777.54,1487.62 1805.5,1439.5 Z"/></g>
<g><path style="opacity:1" fill="#313c4c" d="M 554.5,1575.5 C 632.332,1574.33 710.332,1574.17 788.5,1575C 785.308,1582.53 779.641,1586.53 771.5,1587C 704.833,1587.67 638.167,1587.67 571.5,1587C 563.495,1586.48 557.829,1582.64 554.5,1575.5 Z"/></g>
</svg>
